<?xml version="1.0" standalone="no"?>
<!DOCTYPE svg PUBLIC "-//W3C//DTD SVG 20010904//EN"
 "http://www.w3.org/TR/2001/REC-SVG-20010904/DTD/svg10.dtd">
<svg version="1.0" xmlns="http://www.w3.org/2000/svg"
 width="116.000000pt" height="116.000000pt" viewBox="0 0 116.000000 116.000000"
 preserveAspectRatio="xMidYMid meet">
<metadata>
Created by potrace 1.14, written by Peter Selinger 2001-2017
</metadata>
<g transform="translate(0.000000,116.000000) scale(0.100000,-0.100000)"
fill="#000000" stroke="none">
<path d="M417 1064 c-4 -4 -7 -79 -7 -166 l0 -158 -160 0 -160 0 0 -160 0
-160 160 0 160 0 2 -162 3 -163 162 -3 163 -2 2 162 3 163 160 5 160 5 3 158
3 157 -165 0 -166 0 -2 163 -3 162 -156 3 c-85 1 -158 -1 -162 -4z m323 -484
l0 -160 -160 0 -160 0 0 160 0 160 160 0 160 0 0 -160z"/>
</g>
</svg>
